<svg width="45" height="45" viewBox="0 0 45 45" fill="black" xmlns="http://www.w3.org/2000/svg">
<g clip-path="url(#clip0_0_172)">
<path d="M43.8649 0.367203C44.0966 0.601986 44.1739 0.949085 44.0627 1.25958L31.3357 36.9539C32.094 38.194 32.2715 39.7669 31.6742 41.2095C30.6822 43.6042 27.927 44.7455 25.5321 43.7536C19.8854 41.4145 14.8308 38.0372 10.5089 33.7154C6.18704 29.3935 2.8097 24.339 0.47066 18.6921C0.227801 18.1057 0.112819 17.4979 0.112818 16.8994C0.112902 15.0539 1.20646 13.2991 3.01483 12.5502C4.23154 12.0463 5.54105 12.0939 6.66545 12.5759L42.9752 0.15786C43.2873 0.0511246 43.6331 0.132423 43.8649 0.367203ZM31.438 31.5493L32.7867 27.7663C32.3135 27.3222 31.6621 27.1057 31.0033 27.1925C30.4233 27.2689 29.9076 27.5666 29.5513 28.0308C29.1951 28.4949 29.0412 29.0697 29.1174 29.6502C29.1938 30.2302 29.4914 30.7458 29.9557 31.102C30.3834 31.4302 30.9052 31.5863 31.438 31.5493ZM3.67269 14.1381C2.15349 14.7674 1.42947 16.5155 2.05887 18.0344C6.61656 29.0378 15.1866 37.6077 26.19 42.1656C26.9259 42.4704 27.7363 42.4704 28.4723 42.1656C29.2082 41.8608 29.7813 41.2876 30.0861 40.5518C30.3909 39.8159 30.3909 39.0053 30.0861 38.2694C29.7813 37.5336 29.2082 36.9604 28.4723 36.6556C23.7623 34.7048 19.5464 31.8877 15.9415 28.2828C12.3366 24.6779 9.51969 20.462 7.56874 15.7521C6.93959 14.2328 5.19171 13.5088 3.67269 14.1381ZM29.733 6.50322C29.7349 6.58099 29.7394 6.65885 29.7495 6.73653C29.8259 7.31653 30.1236 7.83215 30.5877 8.18827C31.0519 8.54448 31.6271 8.69857 32.2071 8.62226C33.4045 8.46456 34.2503 7.36242 34.0929 6.16454C34.0442 5.79501 33.9009 5.44807 33.6829 5.1522L29.733 6.50322ZM35.3538 4.58097C35.5818 4.99965 35.7337 5.45968 35.7969 5.94024C36.0791 8.07759 34.5685 10.045 32.4314 10.3263C31.3962 10.4626 30.3698 10.1876 29.5414 9.55193C28.7434 8.93963 28.2221 8.06307 28.0632 7.07427L23.0686 8.78236L24.5759 10.7467C24.8647 11.1232 24.7938 11.6628 24.4173 11.9516C24.0407 12.2406 23.5013 12.1695 23.2123 11.793L21.3525 9.36914L8.36263 13.8116C8.68661 14.1842 8.95766 14.6133 9.15678 15.0939C12.9293 24.2016 20.0226 31.2948 29.1301 35.0672C29.4468 35.1984 29.7409 35.3613 30.0118 35.5493L30.8323 33.2479C30.139 33.1676 29.4776 32.9014 28.9095 32.4655C28.081 31.8299 27.5498 30.9096 27.4136 29.8744C27.3907 29.701 27.3794 29.5281 27.3794 29.356C27.3794 28.5011 27.6587 27.674 28.1878 26.9844C28.8235 26.1559 29.7437 25.6247 30.779 25.4883C31.7085 25.366 32.629 25.5829 33.3916 26.0699L37.2005 15.3873L36.2231 14.9825C35.8921 14.8453 35.6923 14.5254 35.6923 14.1882C35.6923 14.0786 35.7135 13.9672 35.758 13.8596C35.9396 13.4212 36.4424 13.2129 36.8808 13.3945L37.7785 13.7663L41.8452 2.36078L35.3538 4.58097Z" fill="#black"/>
<path d="M21.0579 34.8314C21.0619 34.834 21.0728 34.8411 21.0768 34.8438C21.4715 35.107 21.5775 35.6395 21.3146 36.0344C21.0521 36.4286 20.5194 36.5355 20.1245 36.2746C19.8717 36.11 19.7338 35.8347 19.7338 35.5534C19.7338 35.3943 19.7779 35.2333 19.8703 35.0896C20.127 34.6904 20.6587 34.5748 21.0579 34.8314Z" fill="#black"/>
<path d="M23.1928 36.1383C24.6611 36.9757 26.1979 37.7285 27.7601 38.3757C28.1987 38.5573 28.4067 39.0603 28.2251 39.4985C28.0435 39.937 27.5408 40.1452 27.1023 39.9635C25.4737 39.2889 23.8719 38.5041 22.3413 37.6312C22.0634 37.4726 21.9075 37.1825 21.9075 36.8839C21.9075 36.7396 21.944 36.5932 22.0205 36.459C22.2557 36.0467 22.7806 35.903 23.1928 36.1383Z" fill="#363853"/>
<path d="M33.1139 17.22C33.1365 17.3903 33.1478 17.5633 33.1478 17.7341C33.1478 19.6864 31.6864 21.351 29.7485 21.606C27.6115 21.8874 25.6438 20.3777 25.3625 18.2406C25.34 18.0703 25.3286 17.8973 25.3286 17.7265C25.3286 15.7743 26.79 14.1097 28.728 13.8546C30.865 13.5733 32.8326 15.083 33.1139 17.22ZM28.9523 15.5585C27.8663 15.7015 27.0474 16.6335 27.0474 17.7265C27.0474 17.8226 27.0538 17.9201 27.0665 18.0163C27.2242 19.2138 28.3267 20.0596 29.5242 19.902C30.6102 19.759 31.429 18.8271 31.429 17.7341C31.429 17.638 31.4226 17.5405 31.4099 17.4443C31.2521 16.2469 30.1497 15.4009 28.9523 15.5585Z" fill="#black"/>
<path d="M22.4244 17.4436C22.4469 17.614 22.4583 17.7869 22.4583 17.9577C22.4583 19.91 20.9969 21.5746 19.0589 21.8296C18.0236 21.966 16.9974 21.691 16.1689 21.0553C15.3404 20.4197 14.8092 19.4995 14.6728 18.4642C14.6503 18.294 14.6391 18.1211 14.6391 17.9503C14.6391 15.9981 16.1005 14.3334 18.0385 14.0782C20.1754 13.7968 22.1429 15.3066 22.4244 17.4436ZM18.2627 15.7821C17.1767 15.9251 16.3578 16.8572 16.3578 17.9502C16.3578 18.0461 16.3643 18.1437 16.3769 18.2398C16.4534 18.8198 16.7511 19.3355 17.2152 19.6917C17.6794 20.0479 18.2545 20.202 18.8346 20.1256C19.9205 19.9826 20.7394 19.0506 20.7394 17.9577C20.7394 17.8616 20.7331 17.7641 20.7204 17.6679C20.5627 16.4706 19.4602 15.6246 18.2627 15.7821Z" fill="#black"/>
<path d="M25.9847 23.1116L26.3324 25.7529C26.3949 26.2233 26.0632 26.6552 25.5927 26.7171C25.1221 26.7792 24.6904 26.4479 24.6285 25.9774L24.2807 23.336C24.2756 23.298 24.2732 23.2601 24.2732 23.2228C24.2732 22.7981 24.588 22.4288 25.0204 22.3719C25.4909 22.3098 25.9227 22.641 25.9847 23.1116Z" fill="#black"/>
<path d="M19.6427 24.451L21.4151 24.6842C21.8857 24.7462 22.2171 25.1778 22.1549 25.6483C22.093 26.1189 21.6614 26.4501 21.1908 26.3882L19.4184 26.1549C18.9859 26.098 18.6711 25.7287 18.6711 25.304C18.6711 25.2666 18.6735 25.2288 18.6786 25.1908C18.7406 24.7202 19.1721 24.389 19.6427 24.451Z" fill="#black"/>
</g>
<defs>
<clipPath id="clip0_0_172">
<rect width="44" height="44" fill="white" transform="matrix(-4.37114e-08 -1 -1 4.37114e-08 44.1128 44.1125)"/>
</clipPath>
</defs>
</svg>
